PathFileType	4	(X/Y/Z)	OpenSim_Sub10_EMGStiffKnee_Gyro.trc
DataRate	CameraRate	NumFrames	NumMarkers	Units	OrigDataRate	OrigDataStartFrame	OrigNumFrames
100	100	30	8	m	100	4186	8371
Frame#	Time	torso_imu_offset_imu	pelvis_imu_offset_imu	tibia_r_imu_offset_imu	femur_r_imu_offset_imu	tibia_l_imu_offset_imu	femur_l_imu_offset_imu	toes_r_imu_offset_imu	toes_l_imu_offset_imu
				X1	Y1	Z1	X2	Y2	Z2	X3	Y3	Z3	X4	Y4	Z4	X5	Y5	Z5	X6	Y6	Z6	X7	Y7	Z7	X8		Y8	Z8	

4186	41.85000000	0.64184400	0.10319700	0.27266600	0.73226900	-0.06070900	0.15105200	1.43774500	-0.30213700	-0.56751800	0.78458500	-0.00553100	-0.77318600	1.23417500	-0.25924500	2.26706900	1.86982200	0.76638900	-0.94273400	0.35327000	0.01152600	0.19553000	0.33550600	-3.99874200	-0.05024600
4187	41.86000000	0.66705300	0.20085800	0.31581200	0.82789100	0.04142500	0.11142300	1.24374500	-1.43942000	-0.99067200	0.30714700	-0.27211600	-1.15537800	1.20081500	-0.28922500	2.33283000	1.82378800	0.82764700	-1.01647800	-0.58307400	-0.06806200	0.15808000	1.21589500	-4.45295600	-0.06078500
4188	41.87000000	0.53486800	0.19375500	0.33091400	0.95320900	0.18576700	0.10584500	1.39228400	-1.31736900	-2.14839400	-0.31783900	-0.48420200	-1.47223100	0.99089100	-0.34378300	2.39943700	1.62073000	0.83954700	-1.10569300	0.47147000	0.09700100	0.03100000	0.36157800	-4.36492100	0.19632300
4189	41.88000000	0.52984000	0.19448200	0.35193900	1.05433300	0.33934200	0.10817700	0.72069000	-0.11828200	-2.19242300	-0.85540100	-0.66186400	-1.77715400	0.58160500	-0.40346000	2.40657800	1.38328100	0.83383100	-1.22752300	0.24489900	0.04338700	-0.12083700	-0.11993600	-4.60690900	0.29173300
4190	41.89000000	0.65107200	0.20290900	0.34072900	1.11166700	0.44164100	0.08781600	-0.50178900	-0.03182800	-0.88558600	-1.09007400	-0.68785800	-2.01245000	0.17274200	-0.38463500	2.28762400	1.20421700	0.79683100	-1.40841000	0.46634100	0.04604900	-0.20131400	1.34575200	-4.56580200	0.18281900
4191	41.90000000	0.78449000	0.20380200	0.29342100	1.09681300	0.47959100	0.04485400	-0.69428100	-0.89865400	0.56677900	-1.09980900	-0.52102800	-2.16450300	-0.34656700	-0.35599300	2.21649100	1.06992200	0.70003700	-1.56040300	0.38727400	0.03179900	-0.19942400	2.18963700	-4.34152400	0.50048000
4192	41.91000000	0.89827000	0.20174600	0.25144000	0.99876700	0.45563700	-0.00945800	0.22912500	-0.74516400	0.86413000	-0.95569000	-0.23264100	-2.19031400	-0.90167100	-0.45223400	2.22590900	0.92773100	0.49079900	-1.66849100	0.46143900	-0.03425200	-0.15279900	0.42561400	-3.90599600	1.07856000
4193	41.92000000	0.87270000	0.16507200	0.22803100	0.87643900	0.38561400	-0.08288500	0.18792200	-0.16693200	0.02271400	-0.74722300	0.06287100	-2.06413000	-1.07560800	-0.53770000	2.12010900	0.67141000	0.26730800	-1.72934200	0.33260600	-0.03956100	-0.09752900	0.10217000	-3.41133300	1.18699900
4194	41.93000000	0.74023000	0.19446300	0.23858400	0.77588800	0.30045600	-0.15965100	-0.53658500	-0.19507000	-0.71441900	-0.50427000	0.26703800	-1.84684800	-1.14273400	-0.43903100	1.93224900	0.36342100	0.06706200	-1.69431400	0.22263000	-0.08395300	-0.08066600	0.77073900	-2.75612800	1.16266200
4195	41.94000000	0.63734100	0.22296600	0.28436000	0.69201200	0.22593500	-0.20659000	-0.46126300	-0.22502200	-0.54981000	-0.23574000	0.36134600	-1.61686800	-1.53370300	-0.26997900	1.81046800	0.14055100	-0.07930800	-1.58601300	0.30097800	-0.07112500	-0.09245600	1.79241900	-1.87455600	0.90441100
4196	41.95000000	0.59353900	0.20211300	0.34038300	0.60927300	0.15890900	-0.26015700	-0.03601100	-0.04191500	-0.02538200	0.05035100	0.32852700	-1.36614800	-1.79229100	-0.21833200	1.75593500	-0.01477600	-0.15187700	-1.46128400	0.21802500	-0.04466200	-0.09313700	0.71731700	-0.49950200	0.97845200
4197	41.96000000	0.63751600	0.16229200	0.38276600	0.53875400	0.10936500	-0.31872500	0.47682200	0.00104100	0.21156100	0.35064600	0.17345900	-1.20589800	-1.39449000	-0.56291400	1.65942700	-0.13570000	-0.18320100	-1.31636200	0.30919200	-0.01432500	-0.10397800	0.61803200	-0.15816900	1.35333400
4198	41.97000000	0.68481900	0.07065100	0.37881500	0.48005700	0.11880000	-0.38084400	1.08549700	-0.14293500	0.09292200	0.59437100	-0.00377000	-1.11361700	-0.19974300	-0.94665200	1.37356300	-0.22066300	-0.15650100	-1.13720500	0.36250500	0.00959600	-0.09129100	0.33368600	0.65597200	1.41209400
4199	41.98000000	0.69096600	-0.04852600	0.34382700	0.45780500	0.17148200	-0.42441600	1.32435300	-0.29996100	-0.14686800	0.75234400	-0.10672900	-1.06187300	1.12671000	-0.85068700	0.91855500	-0.30097500	-0.05133000	-0.95647500	0.27864400	0.00676100	-0.08942500	0.60321700	0.90050300	1.53707200
4200	41.99000000	0.72615300	-0.16408200	0.30047200	0.46248400	0.23730300	-0.46157900	1.18611800	-0.34563200	-0.29051500	0.80174400	-0.11083200	-1.09102000	1.73856700	-0.55497600	0.40589900	-0.39149500	0.04710600	-0.80828500	0.23013400	0.00426800	-0.08171700	0.62202200	1.30321700	1.56067700
4201	42	0.78810600	-0.25073900	0.24155400	0.47765200	0.28510500	-0.47844700	0.83468100	-0.28152700	-0.24929700	0.75500900	-0.05129700	-1.21311000	2.22824400	-0.39305100	-0.08550100	-0.46668600	0.11386600	-0.70491600	0.21998500	0.00412100	-0.07524800	0.74667600	1.61535600	1.54926200
4202	42.01000000	0.74505100	-0.30271800	0.15956700	0.49171700	0.31482400	-0.49194200	0.36261300	-0.21297300	-0.04302700	0.67595500	0.00731400	-1.36359600	2.51710700	-0.27119100	-0.49974200	-0.47798500	0.12617800	-0.64619100	0.19492900	0.01153700	-0.08200300	0.65449900	1.85716300	1.50466700
4203	42.02000000	0.66003100	-0.27370400	0.13158900	0.50484800	0.33231000	-0.49252100	0.03267800	-0.14927900	0.14264200	0.53371100	0.02564000	-1.46778000	2.61352100	-0.23240300	-0.85147100	-0.45518400	0.10958400	-0.62118200	0.16368700	-0.00366800	-0.07867400	0.74236600	2.02669000	1.43960700
4204	42.03000000	0.64396700	-0.21991400	0.16412400	0.50976600	0.31821100	-0.46966400	-0.16922300	-0.09287700	0.14577900	0.35015800	0.03119600	-1.48769000	2.76627300	-0.26492600	-1.14269900	-0.41613700	0.10601000	-0.61254200	0.16209300	0.00565600	-0.04845400	0.76765800	2.18828600	1.36449400
4205	42.04000000	0.66553200	-0.23160000	0.20320300	0.50776000	0.28228900	-0.42285400	-0.46386200	-0.17824200	-0.04886900	0.15071600	0.03568200	-1.40346900	2.91161100	-0.30107000	-1.38038600	-0.40446700	0.13842900	-0.61372300	0.01173500	-0.00478700	-0.01376600	0.86704500	2.34127200	1.27847200
4206	42.05000000	0.66039800	-0.24723300	0.22961200	0.48554400	0.23862300	-0.35735600	-0.76109300	-0.28527000	-0.30108700	-0.07561600	0.03012000	-1.26724600	2.98126000	-0.28246500	-1.60848800	-0.41622100	0.18649800	-0.61293300	-0.00684800	-0.01408500	0.02800800	0.91650500	2.47821600	1.20461800
4207	42.06000000	0.62749900	-0.25937800	0.22426600	0.44575400	0.19772700	-0.28106700	-0.84703000	-0.26788500	-0.42005600	-0.32511300	0.03242600	-1.14625300	2.98225800	-0.24087100	-1.85016500	-0.39601800	0.23621000	-0.59688300	-0.07218600	-0.01864900	0.05204400	0.96427500	2.60628400	1.12932500
4208	42.07000000	0.58473400	-0.26815000	0.20495800	0.39574300	0.17310600	-0.20292500	-0.76932100	-0.18600100	-0.37507200	-0.55537500	0.05614900	-1.06150000	2.88259600	-0.21861700	-2.11499000	-0.32992100	0.29651800	-0.56620900	-0.08857100	-0.01308500	0.04619000	0.92972800	2.70754500	1.05526700
4209	42.08000000	0.53977000	-0.27139500	0.19653700	0.33704400	0.16303800	-0.12890900	-0.68832900	-0.15194500	-0.28458400	-0.72836700	0.08217400	-1.01654500	2.66470600	-0.20825700	-2.37167300	-0.23025900	0.36018200	-0.54836400	-0.11006900	-0.01144600	0.04080800	0.90715100	2.73573700	0.94701900
4210	42.09000000	0.50100800	-0.28688100	0.19468100	0.28041700	0.16806300	-0.08492600	-0.64348600	-0.15501300	-0.25139000	-0.80018600	0.10828400	-0.98478500	2.32938000	-0.21940100	-2.62028600	-0.10891500	0.39884700	-0.53614800	-0.14673400	-0.01600500	0.04307700	0.88145700	2.70009800	0.80955600
4211	42.10000000	0.47983100	-0.28956800	0.18514200	0.24060300	0.18830500	-0.05058400	-0.57187600	-0.10591700	-0.26905700	-0.80936200	0.12412800	-0.95899900	1.89406600	-0.23857000	-2.83462300	0.00933600	0.40237000	-0.52314800	-0.07230700	0.00711300	0.06299300	0.82028700	2.69263300	0.63485800
4212	42.11000000	0.43994100	-0.29026500	0.16545300	0.21322900	0.20753500	-0.03688900	-0.45737600	-0.08887800	-0.32185200	-0.75355400	0.13619500	-0.92268000	1.37207100	-0.22560300	-3.02286100	0.11388200	0.39252900	-0.51988600	-0.17019900	-0.02230400	0.08183600	0.72940400	2.72804200	0.42991600
4213	42.12000000	0.39096900	-0.31706300	0.13509100	0.19391600	0.21993500	-0.03084300	-0.38193000	-0.13284700	-0.40974600	-0.65996600	0.12386800	-0.89241100	0.84201400	-0.17067900	-3.16681000	0.18532000	0.37421500	-0.52312400	-0.15024100	-0.00649500	0.09033300	0.63999400	2.81065900	0.17844500
4214	42.13000000	0.34391200	-0.32059500	0.10991200	0.17435500	0.23328900	-0.04266900	-0.37243300	-0.14164300	-0.51781100	-0.53793700	0.12610600	-0.87101100	0.34160600	-0.07380900	-3.27041600	0.22958800	0.34857900	-0.52543100	-0.17737200	-0.02466000	0.08260900	0.59439900	2.92661700	-0.11493300
4215	42.14000000	0.29615800	-0.33480000	0.09731900	0.15348800	0.23427100	-0.06351300	-0.42737500	-0.09303600	-0.59336900	-0.38056200	0.12054700	-0.86058300	-0.11235500	0.05803400	-3.34138200	0.27861900	0.32350100	-0.53194300	-0.14602800	-0.01715000	0.06337800	0.55359100	3.02003600	-0.42200400
